<?xml version="1.0" ?>
<svg baseProfile="full" height="269px" version="1.1" viewBox="-33.803145433 -16.720645833 67.606290866 30.266291666" width="600px" xmlns="http://www.w3.org/2000/svg" xmlns:ev="http://www.w3.org/2001/xml-events" xmlns:xlink="http://www.w3.org/1999/xlink">
	<defs/>
	<path d="M 10.858333,11.0 C 12.999014,10.659518 15.139696,10.319036 17.280377,9.9785546 C 18.972737,8.9662373 20.665098,7.9539201 22.357458,6.9416028 C 23.623058,4.8356706 24.888659,2.7297384 26.154259,0.62380617 C 26.818117,-1.7216292 27.481975,-4.0670646 28.145833,-6.4125003 C 27.922309,-8.2415433 27.698786,-10.070586 27.475262,-11.899629 C 26.875175,-12.658086 26.275087,-13.416543 25.675,-14.175 C 8.5583333,-14.175 -8.5583333,-14.175 -25.675,-14.175 C -26.275087,-13.416543 -26.875175,-12.658086 -27.475262,-11.899629 C -27.698786,-10.070586 -27.922309,-8.2415433 -28.145833,-6.4125003 C -27.481975,-4.0670646 -26.818117,-1.7216292 -26.154259,0.62380617 C -24.888659,2.7297384 -23.623058,4.8356706 -22.357458,6.9416028 C -20.665098,7.9539201 -18.972737,8.9662373 -17.280377,9.9785546 C -15.139696,10.319036 -12.999014,10.659518 -10.858333,11.0 C -3.6194443,11.0 3.6194443,11.0 10.858333,11.0 L 10.858333,11.0" fill="none" stroke="#000000" stroke-width="0.056291666"/>
</svg>
